<svg xmlns="http://www.w3.org/2000/svg" viewBox="0 0 400 225" fill="none">
  <rect width="400" height="225" fill="#F0FDF4"/>
  <!-- Market stall awning -->
  <path d="M100 80 L300 80 L310 110 L90 110Z" fill="#86EFAC"/>
  <path d="M100 80 L133 80 L138 110 L95 110Z" fill="#4ADE80"/>
  <path d="M166 80 L200 80 L205 110 L161 110Z" fill="#4ADE80"/>
  <path d="M233 80 L267 80 L272 110 L228 110Z" fill="#4ADE80"/>
  <!-- Table -->
  <rect x="105" y="110" width="190" height="8" fill="#A16207"/>
  <!-- Legs -->
  <rect x="110" y="118" width="5" height="45" fill="#92400E"/>
  <rect x="285" y="118" width="5" height="45" fill="#92400E"/>
  <!-- Products on table -->
  <rect x="125" y="95" width="20" height="15" rx="3" fill="#FDE68A"/>
  <rect x="155" y="100" width="15" height="10" rx="2" fill="#FED7AA"/>
  <circle cx="195" cy="100" r="8" fill="#FCA5A5"/>
  <rect x="215" y="95" width="18" height="15" rx="3" fill="#BBF7D0"/>
  <circle cx="255" cy="100" r="8" fill="#DDD6FE"/>
  <!-- Basket -->
  <path d="M320 130 Q340 120 340 140 Q340 160 320 155 Q300 160 300 140 Q300 120 320 130Z" fill="#D2B48C"/>
  <path d="M305 135 Q320 125 335 135" stroke="#A0522D" stroke-width="2" fill="none"/>
</svg>
